<svg width="18" height="17" viewBox="0 0 18 17" fill="none" xmlns="http://www.w3.org/2000/svg">
<path fill-rule="evenodd" clip-rule="evenodd" d="M9.11892 14.8746C12.6182 14.8746 15.455 12.0204 15.455 8.49961C15.455 4.97879 12.6182 2.12461 9.11892 2.12461C5.6196 2.12461 2.78284 4.97879 2.78284 8.49961C2.78284 12.0204 5.6196 14.8746 9.11892 14.8746ZM9.11892 16.1496C13.3181 16.1496 16.7222 12.7246 16.7222 8.49961C16.7222 4.27463 13.3181 0.849609 9.11892 0.849609C4.91974 0.849609 1.51562 4.27463 1.51562 8.49961C1.51562 12.7246 4.91974 16.1496 9.11892 16.1496Z" fill="#556E6E"/>
<path d="M8.31826 10.485H9.57228V9.95256C9.57228 8.39423 11.9087 8.17346 11.9087 6.03076C11.9087 4.5893 10.6415 3.6543 9.14987 3.6543C7.71105 3.6543 6.83984 4.48541 6.83984 4.48541L7.55265 5.38145C7.55265 5.38145 8.22586 4.83603 9.05747 4.83603C9.92868 4.83603 10.5623 5.39444 10.5623 6.12166C10.5623 7.61506 8.31826 7.90075 8.31826 9.87464V10.485ZM8.29186 13.0043H9.59868V11.7446H8.29186V13.0043Z" fill="#556E6E"/>
</svg>
