<svg width="51" height="56" viewBox="0 0 51 56" fill="none" xmlns="http://www.w3.org/2000/svg">
<path d="M25.0526 1.80645C25.7673 1.80669 26.4695 1.99503 27.0899 2.3529L46.2463 13.403C46.8744 13.7663 47.3965 14.2905 47.7599 14.9226C48.1232 15.5547 48.315 16.2724 48.3158 17.0032V38.9977C48.3148 39.7284 48.123 40.4459 47.7596 41.0778C47.3963 41.7097 46.8743 42.2338 46.2463 42.597L27.0899 53.6516C26.4694 54.0091 25.7672 54.1972 25.0526 54.1972C24.3381 54.1972 23.6359 54.0091 23.0153 53.6516L3.859 42.597C3.23099 42.2338 2.70898 41.7097 2.34563 41.0778C1.98229 40.4459 1.79045 39.7284 1.78947 38.9977V17.0032C1.79029 16.2724 1.98205 15.5547 2.34541 14.9226C2.70876 14.2905 3.23086 13.7663 3.859 13.403L23.0153 2.3529C23.6358 1.99503 24.338 1.80669 25.0526 1.80645V1.80645ZM25.0526 0C24.0265 0.000270608 23.0181 0.270482 22.1268 0.784L2.97053 11.8323C2.06759 12.3531 1.31721 13.1058 0.795505 14.0139C0.273803 14.9221 -0.00064773 15.9534 1.14793e-06 17.0032V38.9977C-0.000398256 40.0473 0.274166 41.0784 0.79585 41.9864C1.31754 42.8943 2.06779 43.6469 2.97053 44.1677L22.1268 55.216C23.018 55.7297 24.0264 55.9999 25.0526 55.9999C26.0788 55.9999 27.0873 55.7297 27.9784 55.216L47.1347 44.1677C48.0374 43.6468 48.7875 42.8942 49.3092 41.9862C49.8308 41.0783 50.1055 40.0473 50.1053 38.9977V17.0032C50.1057 15.9535 49.8312 14.9222 49.3095 14.0141C48.7878 13.106 48.0375 12.3532 47.1347 11.8323L27.9784 0.784C27.0872 0.270482 26.0788 0.000270608 25.0526 0" fill="#00A88E"/>
<path d="M25.5002 11.8145H24.6055V21.3408H25.5002V11.8145Z" fill="#58595B"/>
<path d="M30.2638 30.5244L29.8164 31.3066L38.5444 36.3938L38.9918 35.6115L30.2638 30.5244Z" fill="#58595B"/>
<path d="M10.9219 35.7558L11.3692 36.538L20.2969 31.3056L19.8496 30.5234L10.9219 35.7558Z" fill="#58595B"/>
<path d="M25.0543 12.5325L38.4753 20.274V35.7255L25.0543 43.468L11.6332 35.7255V20.274L25.0543 12.5325ZM25.0543 10.4551L9.84375 19.2263V36.7742L25.0543 45.5481L40.2648 36.7742V19.2263L25.0543 10.4551Z" fill="#58595B"/>
<path d="M27.1507 25.7402L24.3037 28.6143L23.3552 27.656L22.7227 28.2955L23.6711 29.2529L24.3037 29.8915L24.9362 29.2529L27.7833 26.3788L27.1507 25.7402Z" fill="#58595B"/>
<path d="M25.0522 21.557L29.5259 24.1285V30.0898C29.5259 32.4987 26.3505 34.1299 25.0397 34.7007C23.4515 34.0224 20.5785 32.3352 20.5785 30.0907V24.1294L25.0522 21.5579V21.557ZM25.0522 19.4805L18.7891 23.0816V30.0934C18.7891 34.5264 25.0522 36.6418 25.0522 36.6418C25.0522 36.6418 31.3154 34.5264 31.3154 30.0934V23.0789L25.0522 19.4805Z" fill="#58595B"/>
</svg>
