<svg width="18" height="17" viewBox="0 0 18 17" fill="none" xmlns="http://www.w3.org/2000/svg">
<path d="M7.86243 3.00833C8.2958 1.51021 8.51249 0.761154 8.84651 0.571816C9.13489 0.408353 9.48792 0.408353 9.7763 0.571816C10.1103 0.761154 10.327 1.51021 10.7604 3.00833L11.3261 4.96408C11.4427 5.36703 11.501 5.5685 11.6198 5.716C11.7246 5.84614 11.8622 5.94608 12.0184 6.00557C12.1954 6.073 12.405 6.06617 12.8242 6.05251L14.8591 5.98622C16.4178 5.93544 17.1972 5.91005 17.4805 6.16921C17.725 6.39296 17.8341 6.72872 17.7678 7.05349C17.6909 7.42967 17.0455 7.86723 15.7546 8.74234L14.0694 9.88477C13.7222 10.1201 13.5486 10.2378 13.445 10.3964C13.3537 10.5363 13.3011 10.698 13.2928 10.865C13.2834 11.0541 13.3546 11.2514 13.4972 11.6459L14.189 13.5607C14.719 15.0274 14.984 15.7608 14.825 16.1103C14.6878 16.412 14.4022 16.6195 14.0728 16.6568C13.6913 16.6999 13.0757 16.2213 11.8445 15.264L10.2373 14.0143C9.90612 13.7569 9.74055 13.6281 9.55773 13.5786C9.39641 13.535 9.22639 13.535 9.06508 13.5786C8.88226 13.6281 8.71668 13.7569 8.38553 14.0143L6.77826 15.264C5.54708 16.2213 4.93149 16.6999 4.54997 16.6568C4.22059 16.6195 3.93498 16.412 3.79776 16.1103C3.63882 15.7608 3.9038 15.0274 4.43377 13.5607L5.12562 11.6459C5.26816 11.2514 5.33943 11.0541 5.33001 10.865C5.32169 10.698 5.26915 10.5363 5.17777 10.3964C5.07421 10.2378 4.9006 10.1201 4.5534 9.88477L2.8682 8.74233C1.57732 7.86723 0.931889 7.42967 0.855036 7.05349C0.788686 6.72872 0.89778 6.39296 1.14236 6.16921C1.42565 5.91005 2.205 5.93544 3.76371 5.98622L5.79857 6.05251C6.21782 6.06617 6.42744 6.073 6.60444 6.00557C6.76061 5.94608 6.89816 5.84614 7.003 5.716C7.12182 5.5685 7.1801 5.36703 7.29667 4.96408L7.86243 3.00833Z" fill="#FFE810"/>
</svg>
